<svg xmlns="http://www.w3.org/2000/svg" width="120" height="120" viewBox="0 0 120 120">
  <defs>
    <pattern id="swirl" x="0" y="0" width="120" height="120" patternUnits="userSpaceOnUse">
      <path d="M8 62c18-28 46-18 58 2s-8 48-28 38-38-12-30-40z" fill="none" stroke="rgba(255,255,255,0.35)" stroke-width="1.4"/>
      <path d="M52 18c-8 22 6 40 24 40s32-14 28-38-22-28-52-2z" fill="none" stroke="rgba(255,255,255,0.28)" stroke-width="1.2"/>
      <path d="M18 92c12-16 28-8 34 6s-6 24-18 20-20-4-16-26z" fill="none" stroke="rgba(255,255,255,0.22)" stroke-width="1"/>
      <path d="M78 78c10-14 24-6 28 8s-8 20-18 16-22-6-10-24z" fill="none" stroke="rgba(255,255,255,0.2)" stroke-width="0.9"/>
      <circle cx="95" cy="28" r="2" fill="rgba(255,255,255,0.18)"/>
      <circle cx="22" cy="98" r="1.5" fill="rgba(255,255,255,0.15)"/>
    </pattern>
  </defs>
  <rect width="120" height="120" fill="url(#swirl)"/>
</svg>
